# MagicaVoxel @ Ephtracy

# group
o 

# material
mtllib farol luz.mtl
usemtl palette

# normals
vn -1 0 0
vn 1 0 0
vn 0 0 1
vn 0 0 -1
vn 0 -1 0
vn 0 1 0

# texcoords
vt 0.427734 0.5
vt 0.958984 0.5
vt 0.970703 0.5
vt 0.974609 0.5
vt 0.986328 0.5

# verts
v -2 0 2
v -2 0 1.2
v -2 0.1 2
v -2 0.1 1.2
v -1.9 3.6 1.9
v -1.9 3.6 1.7
v -1.9 3.6 1.5
v -1.9 3.6 1.3
v -1.9 3.7 1.9
v -1.9 3.7 1.7
v -1.9 3.7 1.5
v -1.9 3.7 1.3
v -1.8 0.1 1.8
v -1.8 0.1 1.4
v -1.8 0.2 1.8
v -1.8 0.2 1.4
v -1.8 3.1 1.8
v -1.8 3.1 1.4
v -1.8 3.2 1.7
v -1.8 3.2 1.5
v -1.8 3.5 1.7
v -1.8 3.5 1.5
v -1.8 3.6 1.8
v -1.8 3.6 1.7
v -1.8 3.6 1.5
v -1.8 3.6 1.4
v -1.8 3.7 1.8
v -1.8 3.7 1.7
v -1.8 3.7 1.5
v -1.8 3.7 1.4
v -1.8 3.8 1.8
v -1.8 3.8 1.7
v -1.8 3.8 1.5
v -1.8 3.8 1.4
v -1.7 0.2 1.7
v -1.7 0.2 1.5
v -1.7 3.1 1.7
v -1.7 3.1 1.5
v -1.7 3.2 1.7
v -1.7 3.2 1.5
v -1.7 3.4 1.7
v -1.7 3.4 1.5
v -1.7 3.7 1.7
v -1.7 3.7 1.5
v -1.7 3.8 1.7
v -1.7 3.8 1.5
v -1.7 3.9 1.7
v -1.7 3.9 1.5
v -1.5 3.2 1.8
v -1.5 3.2 1.7
v -1.5 3.2 1.5
v -1.5 3.2 1.4
v -1.5 3.4 1.7
v -1.5 3.4 1.5
v -1.5 3.5 1.8
v -1.5 3.5 1.7
v -1.5 3.5 1.5
v -1.5 3.5 1.4
v -1.5 3.6 1.9
v -1.5 3.6 1.8
v -1.5 3.6 1.4
v -1.5 3.6 1.3
v -1.5 3.7 1.9
v -1.5 3.7 1.8
v -1.5 3.7 1.7
v -1.5 3.7 1.5
v -1.5 3.7 1.4
v -1.5 3.7 1.3
v -1.5 3.8 1.8
v -1.5 3.8 1.7
v -1.5 3.8 1.5
v -1.5 3.8 1.4
v -1.7 3.2 1.8
v -1.7 3.2 1.7
v -1.7 3.2 1.5
v -1.7 3.2 1.4
v -1.7 3.4 1.7
v -1.7 3.4 1.5
v -1.7 3.5 1.8
v -1.7 3.5 1.7
v -1.7 3.5 1.5
v -1.7 3.5 1.4
v -1.7 3.6 1.9
v -1.7 3.6 1.8
v -1.7 3.6 1.4
v -1.7 3.6 1.3
v -1.7 3.7 1.9
v -1.7 3.7 1.8
v -1.7 3.7 1.7
v -1.7 3.7 1.5
v -1.7 3.7 1.4
v -1.7 3.7 1.3
v -1.7 3.8 1.8
v -1.7 3.8 1.7
v -1.7 3.8 1.5
v -1.7 3.8 1.4
v -1.5 0.2 1.7
v -1.5 0.2 1.5
v -1.5 3.1 1.7
v -1.5 3.1 1.5
v -1.5 3.2 1.7
v -1.5 3.2 1.5
v -1.5 3.4 1.7
v -1.5 3.4 1.5
v -1.5 3.7 1.7
v -1.5 3.7 1.5
v -1.5 3.8 1.7
v -1.5 3.8 1.5
v -1.5 3.9 1.7
v -1.5 3.9 1.5
v -1.4 0.1 1.8
v -1.4 0.1 1.4
v -1.4 0.2 1.8
v -1.4 0.2 1.4
v -1.4 3.1 1.8
v -1.4 3.1 1.4
v -1.4 3.2 1.7
v -1.4 3.2 1.5
v -1.4 3.5 1.7
v -1.4 3.5 1.5
v -1.4 3.6 1.8
v -1.4 3.6 1.7
v -1.4 3.6 1.5
v -1.4 3.6 1.4
v -1.4 3.7 1.8
v -1.4 3.7 1.7
v -1.4 3.7 1.5
v -1.4 3.7 1.4
v -1.4 3.8 1.8
v -1.4 3.8 1.7
v -1.4 3.8 1.5
v -1.4 3.8 1.4
v -1.3 3.6 1.9
v -1.3 3.6 1.7
v -1.3 3.6 1.5
v -1.3 3.6 1.3
v -1.3 3.7 1.9
v -1.3 3.7 1.7
v -1.3 3.7 1.5
v -1.3 3.7 1.3
v -1.2 0 2
v -1.2 0 1.2
v -1.2 0.1 2
v -1.2 0.1 1.2
v -2 0 2
v -2 0.1 2
v -1.2 0 2
v -1.2 0.1 2
v -1.9 3.6 1.9
v -1.9 3.7 1.9
v -1.7 3.6 1.9
v -1.7 3.7 1.9
v -1.5 3.6 1.9
v -1.5 3.7 1.9
v -1.3 3.6 1.9
v -1.3 3.7 1.9
v -1.8 0.1 1.8
v -1.8 0.2 1.8
v -1.8 3.1 1.8
v -1.8 3.6 1.8
v -1.8 3.7 1.8
v -1.8 3.8 1.8
v -1.7 3.2 1.8
v -1.7 3.5 1.8
v -1.7 3.6 1.8
v -1.7 3.7 1.8
v -1.7 3.8 1.8
v -1.5 3.2 1.8
v -1.5 3.5 1.8
v -1.5 3.6 1.8
v -1.5 3.7 1.8
v -1.5 3.8 1.8
v -1.4 0.1 1.8
v -1.4 0.2 1.8
v -1.4 3.1 1.8
v -1.4 3.6 1.8
v -1.4 3.7 1.8
v -1.4 3.8 1.8
v -1.7 0.2 1.7
v -1.7 3.1 1.7
v -1.7 3.2 1.7
v -1.7 3.4 1.7
v -1.7 3.7 1.7
v -1.7 3.8 1.7
v -1.7 3.9 1.7
v -1.5 0.2 1.7
v -1.5 3.1 1.7
v -1.5 3.2 1.7
v -1.5 3.4 1.7
v -1.5 3.7 1.7
v -1.5 3.8 1.7
v -1.5 3.9 1.7
v -1.9 3.6 1.5
v -1.9 3.7 1.5
v -1.8 3.2 1.5
v -1.8 3.5 1.5
v -1.8 3.6 1.5
v -1.8 3.7 1.5
v -1.8 3.8 1.5
v -1.7 3.2 1.5
v -1.7 3.4 1.5
v -1.7 3.5 1.5
v -1.7 3.7 1.5
v -1.7 3.8 1.5
v -1.5 3.2 1.5
v -1.5 3.4 1.5
v -1.5 3.5 1.5
v -1.5 3.7 1.5
v -1.5 3.8 1.5
v -1.4 3.2 1.5
v -1.4 3.5 1.5
v -1.4 3.6 1.5
v -1.4 3.7 1.5
v -1.4 3.8 1.5
v -1.3 3.6 1.5
v -1.3 3.7 1.5
v -1.9 3.6 1.7
v -1.9 3.7 1.7
v -1.8 3.2 1.7
v -1.8 3.5 1.7
v -1.8 3.6 1.7
v -1.8 3.7 1.7
v -1.8 3.8 1.7
v -1.7 3.2 1.7
v -1.7 3.4 1.7
v -1.7 3.5 1.7
v -1.7 3.7 1.7
v -1.7 3.8 1.7
v -1.5 3.2 1.7
v -1.5 3.4 1.7
v -1.5 3.5 1.7
v -1.5 3.7 1.7
v -1.5 3.8 1.7
v -1.4 3.2 1.7
v -1.4 3.5 1.7
v -1.4 3.6 1.7
v -1.4 3.7 1.7
v -1.4 3.8 1.7
v -1.3 3.6 1.7
v -1.3 3.7 1.7
v -1.7 0.2 1.5
v -1.7 3.1 1.5
v -1.7 3.2 1.5
v -1.7 3.4 1.5
v -1.7 3.7 1.5
v -1.7 3.8 1.5
v -1.7 3.9 1.5
v -1.5 0.2 1.5
v -1.5 3.1 1.5
v -1.5 3.2 1.5
v -1.5 3.4 1.5
v -1.5 3.7 1.5
v -1.5 3.8 1.5
v -1.5 3.9 1.5
v -1.8 0.1 1.4
v -1.8 0.2 1.4
v -1.8 3.1 1.4
v -1.8 3.6 1.4
v -1.8 3.7 1.4
v -1.8 3.8 1.4
v -1.7 3.2 1.4
v -1.7 3.5 1.4
v -1.7 3.6 1.4
v -1.7 3.7 1.4
v -1.7 3.8 1.4
v -1.5 3.2 1.4
v -1.5 3.5 1.4
v -1.5 3.6 1.4
v -1.5 3.7 1.4
v -1.5 3.8 1.4
v -1.4 0.1 1.4
v -1.4 0.2 1.4
v -1.4 3.1 1.4
v -1.4 3.6 1.4
v -1.4 3.7 1.4
v -1.4 3.8 1.4
v -1.9 3.6 1.3
v -1.9 3.7 1.3
v -1.7 3.6 1.3
v -1.7 3.7 1.3
v -1.5 3.6 1.3
v -1.5 3.7 1.3
v -1.3 3.6 1.3
v -1.3 3.7 1.3
v -2 0 1.2
v -2 0.1 1.2
v -1.2 0 1.2
v -1.2 0.1 1.2
v -2 0 2
v -1.2 0 2
v -2 0 1.2
v -1.2 0 1.2
v -1.8 3.1 1.8
v -1.4 3.1 1.8
v -1.7 3.1 1.7
v -1.5 3.1 1.7
v -1.7 3.1 1.5
v -1.5 3.1 1.5
v -1.8 3.1 1.4
v -1.4 3.1 1.4
v -1.7 3.5 1.8
v -1.5 3.5 1.8
v -1.8 3.5 1.7
v -1.7 3.5 1.7
v -1.5 3.5 1.7
v -1.4 3.5 1.7
v -1.8 3.5 1.5
v -1.7 3.5 1.5
v -1.5 3.5 1.5
v -1.4 3.5 1.5
v -1.7 3.5 1.4
v -1.5 3.5 1.4
v -1.9 3.6 1.9
v -1.7 3.6 1.9
v -1.5 3.6 1.9
v -1.3 3.6 1.9
v -1.8 3.6 1.8
v -1.7 3.6 1.8
v -1.5 3.6 1.8
v -1.4 3.6 1.8
v -1.9 3.6 1.7
v -1.8 3.6 1.7
v -1.4 3.6 1.7
v -1.3 3.6 1.7
v -1.9 3.6 1.5
v -1.8 3.6 1.5
v -1.4 3.6 1.5
v -1.3 3.6 1.5
v -1.8 3.6 1.4
v -1.7 3.6 1.4
v -1.5 3.6 1.4
v -1.4 3.6 1.4
v -1.9 3.6 1.3
v -1.7 3.6 1.3
v -1.5 3.6 1.3
v -1.3 3.6 1.3
v -2 0.1 2
v -1.2 0.1 2
v -1.8 0.1 1.8
v -1.4 0.1 1.8
v -1.8 0.1 1.4
v -1.4 0.1 1.4
v -2 0.1 1.2
v -1.2 0.1 1.2
v -1.8 0.2 1.8
v -1.4 0.2 1.8
v -1.7 0.2 1.7
v -1.5 0.2 1.7
v -1.7 0.2 1.5
v -1.5 0.2 1.5
v -1.8 0.2 1.4
v -1.4 0.2 1.4
v -1.7 3.2 1.8
v -1.5 3.2 1.8
v -1.8 3.2 1.7
v -1.7 3.2 1.7
v -1.5 3.2 1.7
v -1.4 3.2 1.7
v -1.8 3.2 1.5
v -1.7 3.2 1.5
v -1.5 3.2 1.5
v -1.4 3.2 1.5
v -1.7 3.2 1.4
v -1.5 3.2 1.4
v -1.7 3.4 1.7
v -1.5 3.4 1.7
v -1.7 3.4 1.5
v -1.5 3.4 1.5
v -1.9 3.7 1.9
v -1.7 3.7 1.9
v -1.5 3.7 1.9
v -1.3 3.7 1.9
v -1.8 3.7 1.8
v -1.7 3.7 1.8
v -1.5 3.7 1.8
v -1.4 3.7 1.8
v -1.9 3.7 1.7
v -1.8 3.7 1.7
v -1.7 3.7 1.7
v -1.5 3.7 1.7
v -1.4 3.7 1.7
v -1.3 3.7 1.7
v -1.9 3.7 1.5
v -1.8 3.7 1.5
v -1.7 3.7 1.5
v -1.5 3.7 1.5
v -1.4 3.7 1.5
v -1.3 3.7 1.5
v -1.8 3.7 1.4
v -1.7 3.7 1.4
v -1.5 3.7 1.4
v -1.4 3.7 1.4
v -1.9 3.7 1.3
v -1.7 3.7 1.3
v -1.5 3.7 1.3
v -1.3 3.7 1.3
v -1.8 3.8 1.8
v -1.7 3.8 1.8
v -1.5 3.8 1.8
v -1.4 3.8 1.8
v -1.8 3.8 1.7
v -1.7 3.8 1.7
v -1.5 3.8 1.7
v -1.4 3.8 1.7
v -1.8 3.8 1.5
v -1.7 3.8 1.5
v -1.5 3.8 1.5
v -1.4 3.8 1.5
v -1.8 3.8 1.4
v -1.7 3.8 1.4
v -1.5 3.8 1.4
v -1.4 3.8 1.4
v -1.7 3.9 1.7
v -1.5 3.9 1.7
v -1.7 3.9 1.5
v -1.5 3.9 1.5

# faces
f 3/5/1 2/5/1 1/5/1
f 4/5/1 2/5/1 3/5/1
f 9/2/1 6/2/1 5/2/1
f 10/2/1 6/2/1 9/2/1
f 11/2/1 8/2/1 7/2/1
f 12/2/1 8/2/1 11/2/1
f 15/4/1 14/4/1 13/4/1
f 16/4/1 14/4/1 15/4/1
f 19/3/1 18/3/1 17/3/1
f 20/3/1 18/3/1 19/3/1
f 21/3/1 19/3/1 17/3/1
f 22/3/1 18/3/1 20/3/1
f 23/3/1 21/3/1 17/3/1
f 23/3/1 22/3/1 21/3/1
f 24/3/1 22/3/1 23/3/1
f 25/3/1 18/3/1 22/3/1
f 25/3/1 22/3/1 24/3/1
f 26/3/1 18/3/1 25/3/1
f 28/2/1 25/2/1 24/2/1
f 29/2/1 25/2/1 28/2/1
f 31/2/1 28/2/1 27/2/1
f 32/2/1 28/2/1 31/2/1
f 33/2/1 30/2/1 29/2/1
f 34/2/1 30/2/1 33/2/1
f 37/3/1 36/3/1 35/3/1
f 38/3/1 36/3/1 37/3/1
f 41/1/1 40/1/1 39/1/1
f 42/1/1 40/1/1 41/1/1
f 45/2/1 44/2/1 43/2/1
f 46/2/1 44/2/1 45/2/1
f 47/2/1 46/2/1 45/2/1
f 48/2/1 46/2/1 47/2/1
f 53/3/1 50/3/1 49/3/1
f 54/3/1 52/3/1 51/3/1
f 55/3/1 53/3/1 49/3/1
f 56/3/1 53/3/1 55/3/1
f 57/3/1 52/3/1 54/3/1
f 58/3/1 52/3/1 57/3/1
f 63/2/1 60/2/1 59/2/1
f 64/2/1 60/2/1 63/2/1
f 67/2/1 62/2/1 61/2/1
f 68/2/1 62/2/1 67/2/1
f 69/2/1 65/2/1 64/2/1
f 70/2/1 65/2/1 69/2/1
f 71/2/1 67/2/1 66/2/1
f 72/2/1 67/2/1 71/2/1
f 73/3/2 74/3/2 77/3/2
f 75/3/2 76/3/2 78/3/2
f 73/3/2 77/3/2 79/3/2
f 79/3/2 77/3/2 80/3/2
f 78/3/2 76/3/2 81/3/2
f 81/3/2 76/3/2 82/3/2
f 83/2/2 84/2/2 87/2/2
f 87/2/2 84/2/2 88/2/2
f 85/2/2 86/2/2 91/2/2
f 91/2/2 86/2/2 92/2/2
f 88/2/2 89/2/2 93/2/2
f 93/2/2 89/2/2 94/2/2
f 90/2/2 91/2/2 95/2/2
f 95/2/2 91/2/2 96/2/2
f 97/3/2 98/3/2 99/3/2
f 99/3/2 98/3/2 100/3/2
f 101/1/2 102/1/2 103/1/2
f 103/1/2 102/1/2 104/1/2
f 105/2/2 106/2/2 107/2/2
f 107/2/2 106/2/2 108/2/2
f 107/2/2 108/2/2 109/2/2
f 109/2/2 108/2/2 110/2/2
f 111/4/2 112/4/2 113/4/2
f 113/4/2 112/4/2 114/4/2
f 115/3/2 116/3/2 117/3/2
f 117/3/2 116/3/2 118/3/2
f 115/3/2 117/3/2 119/3/2
f 118/3/2 116/3/2 120/3/2
f 115/3/2 119/3/2 121/3/2
f 119/3/2 120/3/2 121/3/2
f 121/3/2 120/3/2 122/3/2
f 120/3/2 116/3/2 123/3/2
f 122/3/2 120/3/2 123/3/2
f 123/3/2 116/3/2 124/3/2
f 122/2/2 123/2/2 126/2/2
f 126/2/2 123/2/2 127/2/2
f 125/2/2 126/2/2 129/2/2
f 129/2/2 126/2/2 130/2/2
f 127/2/2 128/2/2 131/2/2
f 131/2/2 128/2/2 132/2/2
f 133/2/2 134/2/2 137/2/2
f 137/2/2 134/2/2 138/2/2
f 135/2/2 136/2/2 139/2/2
f 139/2/2 136/2/2 140/2/2
f 141/5/2 142/5/2 143/5/2
f 143/5/2 142/5/2 144/5/2
f 147/5/3 146/5/3 145/5/3
f 148/5/3 146/5/3 147/5/3
f 151/2/3 150/2/3 149/2/3
f 152/2/3 150/2/3 151/2/3
f 155/2/3 154/2/3 153/2/3
f 156/2/3 154/2/3 155/2/3
f 163/3/3 160/3/3 159/3/3
f 164/3/3 160/3/3 163/3/3
f 165/3/3 160/3/3 164/3/3
f 166/2/3 162/2/3 161/2/3
f 167/2/3 162/2/3 166/2/3
f 168/3/3 163/3/3 159/3/3
f 169/3/3 165/3/3 164/3/3
f 170/2/3 166/2/3 165/2/3
f 170/3/3 165/3/3 169/3/3
f 171/2/3 166/2/3 170/2/3
f 173/4/3 158/4/3 157/4/3
f 174/4/3 158/4/3 173/4/3
f 175/3/3 168/3/3 159/3/3
f 175/3/3 169/3/3 168/3/3
f 175/3/3 170/3/3 169/3/3
f 176/3/3 170/3/3 175/3/3
f 177/2/3 172/2/3 171/2/3
f 178/2/3 172/2/3 177/2/3
f 186/3/3 180/3/3 179/3/3
f 187/3/3 180/3/3 186/3/3
f 188/1/3 182/1/3 181/1/3
f 189/1/3 182/1/3 188/1/3
f 190/2/3 185/2/3 184/2/3
f 190/2/3 184/2/3 183/2/3
f 191/2/3 185/2/3 190/2/3
f 192/2/3 185/2/3 191/2/3
f 197/2/3 194/2/3 193/2/3
f 198/2/3 194/2/3 197/2/3
f 200/3/3 196/3/3 195/3/3
f 201/3/3 196/3/3 200/3/3
f 202/3/3 196/3/3 201/3/3
f 203/2/3 199/2/3 198/2/3
f 204/2/3 199/2/3 203/2/3
f 210/3/3 206/3/3 205/3/3
f 210/3/3 207/3/3 206/3/3
f 211/3/3 207/3/3 210/3/3
f 213/2/3 209/2/3 208/2/3
f 214/2/3 209/2/3 213/2/3
f 215/2/3 213/2/3 212/2/3
f 216/2/3 213/2/3 215/2/3
f 217/2/4 218/2/4 221/2/4
f 221/2/4 218/2/4 222/2/4
f 219/3/4 220/3/4 224/3/4
f 224/3/4 220/3/4 225/3/4
f 225/3/4 220/3/4 226/3/4
f 222/2/4 223/2/4 227/2/4
f 227/2/4 223/2/4 228/2/4
f 229/3/4 230/3/4 234/3/4
f 230/3/4 231/3/4 234/3/4
f 234/3/4 231/3/4 235/3/4
f 232/2/4 233/2/4 237/2/4
f 237/2/4 233/2/4 238/2/4
f 236/2/4 237/2/4 239/2/4
f 239/2/4 237/2/4 240/2/4
f 241/3/4 242/3/4 248/3/4
f 248/3/4 242/3/4 249/3/4
f 243/1/4 244/1/4 250/1/4
f 250/1/4 244/1/4 251/1/4
f 246/2/4 247/2/4 252/2/4
f 245/2/4 246/2/4 252/2/4
f 252/2/4 247/2/4 253/2/4
f 253/2/4 247/2/4 254/2/4
f 257/3/4 258/3/4 261/3/4
f 261/3/4 258/3/4 262/3/4
f 262/3/4 258/3/4 263/3/4
f 259/2/4 260/2/4 264/2/4
f 264/2/4 260/2/4 265/2/4
f 257/3/4 261/3/4 266/3/4
f 262/3/4 263/3/4 267/3/4
f 263/2/4 264/2/4 268/2/4
f 267/3/4 263/3/4 268/3/4
f 268/2/4 264/2/4 269/2/4
f 255/4/4 256/4/4 271/4/4
f 271/4/4 256/4/4 272/4/4
f 257/3/4 266/3/4 273/3/4
f 266/3/4 267/3/4 273/3/4
f 267/3/4 268/3/4 273/3/4
f 273/3/4 268/3/4 274/3/4
f 269/2/4 270/2/4 275/2/4
f 275/2/4 270/2/4 276/2/4
f 277/2/4 278/2/4 279/2/4
f 279/2/4 278/2/4 280/2/4
f 281/2/4 282/2/4 283/2/4
f 283/2/4 282/2/4 284/2/4
f 285/5/4 286/5/4 287/5/4
f 287/5/4 286/5/4 288/5/4
f 291/5/5 290/5/5 289/5/5
f 292/5/5 290/5/5 291/5/5
f 295/3/5 294/3/5 293/3/5
f 296/3/5 294/3/5 295/3/5
f 297/3/5 295/3/5 293/3/5
f 298/3/5 294/3/5 296/3/5
f 299/3/5 297/3/5 293/3/5
f 299/3/5 298/3/5 297/3/5
f 300/3/5 294/3/5 298/3/5
f 300/3/5 298/3/5 299/3/5
f 304/3/5 302/3/5 301/3/5
f 305/3/5 302/3/5 304/3/5
f 307/3/5 304/3/5 303/3/5
f 307/3/5 306/3/5 305/3/5
f 307/3/5 305/3/5 304/3/5
f 308/3/5 306/3/5 307/3/5
f 309/3/5 306/3/5 308/3/5
f 310/3/5 306/3/5 309/3/5
f 311/3/5 309/3/5 308/3/5
f 312/3/5 309/3/5 311/3/5
f 317/2/5 314/2/5 313/2/5
f 318/2/5 314/2/5 317/2/5
f 319/2/5 316/2/5 315/2/5
f 320/2/5 316/2/5 319/2/5
f 321/2/5 317/2/5 313/2/5
f 322/2/5 317/2/5 321/2/5
f 323/2/5 316/2/5 320/2/5
f 324/2/5 316/2/5 323/2/5
f 329/2/5 326/2/5 325/2/5
f 332/2/5 328/2/5 327/2/5
f 333/2/5 330/2/5 329/2/5
f 333/2/5 329/2/5 325/2/5
f 334/2/5 330/2/5 333/2/5
f 335/2/5 332/2/5 331/2/5
f 336/2/5 328/2/5 332/2/5
f 336/2/5 332/2/5 335/2/5
f 337/5/6 338/5/6 339/5/6
f 339/5/6 338/5/6 340/5/6
f 337/5/6 339/5/6 341/5/6
f 340/5/6 338/5/6 342/5/6
f 337/5/6 341/5/6 343/5/6
f 341/5/6 342/5/6 343/5/6
f 342/5/6 338/5/6 344/5/6
f 343/5/6 342/5/6 344/5/6
f 345/4/6 346/4/6 347/4/6
f 347/4/6 346/4/6 348/4/6
f 345/4/6 347/4/6 349/4/6
f 348/4/6 346/4/6 350/4/6
f 345/4/6 349/4/6 351/4/6
f 349/4/6 350/4/6 351/4/6
f 350/4/6 346/4/6 352/4/6
f 351/4/6 350/4/6 352/4/6
f 353/3/6 354/3/6 356/3/6
f 356/3/6 354/3/6 357/3/6
f 355/3/6 356/3/6 359/3/6
f 359/3/6 356/3/6 360/3/6
f 357/3/6 358/3/6 361/3/6
f 361/3/6 358/3/6 362/3/6
f 360/3/6 361/3/6 363/3/6
f 363/3/6 361/3/6 364/3/6
f 365/1/6 366/1/6 367/1/6
f 367/1/6 366/1/6 368/1/6
f 369/2/6 370/2/6 373/2/6
f 373/2/6 370/2/6 374/2/6
f 371/2/6 372/2/6 375/2/6
f 375/2/6 372/2/6 376/2/6
f 369/2/6 373/2/6 377/2/6
f 377/2/6 373/2/6 378/2/6
f 374/2/6 375/2/6 379/2/6
f 379/2/6 375/2/6 380/2/6
f 376/2/6 372/2/6 381/2/6
f 381/2/6 372/2/6 382/2/6
f 378/2/6 379/2/6 384/2/6
f 384/2/6 379/2/6 385/2/6
f 380/2/6 381/2/6 386/2/6
f 386/2/6 381/2/6 387/2/6
f 383/2/6 384/2/6 389/2/6
f 385/2/6 386/2/6 390/2/6
f 390/2/6 386/2/6 391/2/6
f 387/2/6 388/2/6 392/2/6
f 383/2/6 389/2/6 393/2/6
f 389/2/6 390/2/6 393/2/6
f 393/2/6 390/2/6 394/2/6
f 391/2/6 392/2/6 395/2/6
f 392/2/6 388/2/6 396/2/6
f 395/2/6 392/2/6 396/2/6
f 397/2/6 398/2/6 401/2/6
f 401/2/6 398/2/6 402/2/6
f 399/2/6 400/2/6 403/2/6
f 403/2/6 400/2/6 404/2/6
f 405/2/6 406/2/6 409/2/6
f 409/2/6 406/2/6 410/2/6
f 407/2/6 408/2/6 411/2/6
f 411/2/6 408/2/6 412/2/6
f 413/2/6 414/2/6 415/2/6
f 415/2/6 414/2/6 416/2/6
